<?xml version="1.0" standalone="no"?><!DOCTYPE svg PUBLIC "-//W3C//DTD SVG 1.1//EN" "http://www.w3.org/Graphics/SVG/1.1/DTD/svg11.dtd"><svg t="1590658519465" class="icon" viewBox="0 0 1024 1024" version="1.1" xmlns="http://www.w3.org/2000/svg" p-id="6797" xmlns:xlink="http://www.w3.org/1999/xlink" width="128" height="128"><defs><style type="text/css"></style></defs><path d="M721.47456 83.912704l-425.05216 0c-39.887872 0-72.233984 32.346112-72.233984 72.252416L224.188416 859.784192c0 39.887872 32.346112 72.252416 72.233984 72.252416l425.05216 0c39.887872 0 72.233984-32.36352 72.233984-72.252416L793.708544 156.164096C793.708544 116.257792 761.362432 83.912704 721.47456 83.912704zM758.608896 858.218496c0 20.358144-16.505856 36.864-36.864 36.864L296.656896 895.082496c-20.358144 0-36.864-16.505856-36.864-36.864L259.792896 156.848128c0-20.375552 16.505856-36.864 36.864-36.864l425.088 0c20.358144 0 36.864 16.488448 36.864 36.864L758.608896 858.218496zM701.548544 157.640704 316.0064 157.640704c-10.187776 0-18.432 8.244224-18.432 18.432l0 571.769856c0 10.187776 8.244224 18.432 18.432 18.432l385.542144 0c10.170368 0 18.432-8.244224 18.432-18.432L719.980544 176.072704C719.980544 165.883904 711.718912 157.640704 701.548544 157.640704zM703.04256 731.551744c0 9.270272-7.488512 16.776192-16.75776 16.776192L331.234304 748.327936c-9.25184 0-16.75776-7.50592-16.75776-16.776192L314.476544 192.182272c0-9.25184 7.50592-16.75776 16.75776-16.75776l355.050496 0c9.270272 0 16.75776 7.50592 16.75776 16.75776L703.04256 731.551744zM508.606464 784.77824c-25.488384 0-46.134272 20.645888-46.134272 46.134272 0 25.469952 20.645888 46.11584 46.134272 46.11584 25.469952 0 46.11584-20.645888 46.11584-46.11584C554.722304 805.424128 534.076416 784.77824 508.606464 784.77824zM508.534784 858.866688c-15.479808 0-28.044288-12.546048-28.044288-28.061696 0-15.479808 12.56448-28.044288 28.044288-28.044288 15.49824 0 28.044288 12.56448 28.044288 28.044288C536.578048 846.32064 524.032 858.866688 508.534784 858.866688z" p-id="6798"></path></svg>